<?xml version="1.0" standalone="no"?>
<!DOCTYPE svg PUBLIC "-//W3C//DTD SVG 20010904//EN"
 "http://www.w3.org/TR/2001/REC-SVG-20010904/DTD/svg10.dtd">
<svg version="1.0" xmlns="http://www.w3.org/2000/svg"
 width="512.000000pt" height="512.000000pt" viewBox="0 0 512.000000 512.000000"
 preserveAspectRatio="xMidYMid meet">

<g transform="translate(0.000000,512.000000) scale(0.100000,-0.100000)"
fill="#ffffff" stroke="none">
<path d="M1002 4979 c-435 -57 -802 -360 -942 -777 -58 -175 -60 -201 -60
-1059 0 -502 4 -809 11 -859 67 -486 443 -881 927 -975 l62 -12 0 -524 c0
-521 0 -526 22 -564 23 -41 84 -79 126 -79 62 0 101 35 662 595 l565 565 846
0 c705 0 861 2 932 15 496 86 872 464 952 955 22 138 22 1606 0 1753 -36 241
-148 461 -325 638 -158 158 -332 255 -560 312 -84 21 -94 21 -1620 23 -844 1
-1563 -2 -1598 -7z m485 -1631 c60 -28 113 -81 144 -144 35 -72 34 -189 -3
-259 -115 -219 -421 -220 -536 -1 -36 68 -38 186 -5 257 37 81 117 147 208
170 47 13 140 1 192 -23z m1200 0 c60 -28 113 -81 144 -144 35 -72 34 -189 -3
-259 -115 -219 -421 -220 -536 -1 -36 68 -38 186 -5 257 37 81 117 147 208
170 47 13 140 1 192 -23z m1200 0 c60 -28 113 -81 144 -144 35 -72 34 -189 -3
-259 -115 -219 -421 -220 -536 -1 -36 68 -38 186 -5 257 37 81 117 147 208
170 47 13 140 1 192 -23z"/>
</g>
</svg>
